<svg width="388" height="57" viewBox="0 0 388 57" fill="none" xmlns="http://www.w3.org/2000/svg">
  <style>
    :root {
      --textcolor: #1D1D1D;
      --fillcolor: #FFA217;
    }
    @media (prefers-color-scheme: dark) {
      :root {
        --textcolor: #FFFFFF;
        --fillcolor: #CAF800;
      }
    }
  </style>
  <path d="M370.405 53.8019C359.542 53.8019 351.45 45.9286 351.45 34.9205C351.45 24.6414 358.813 16.2578 369.53 16.2578C380.319 16.2578 387.026 24.0582 387.026 34.0457V36.9617H358.449C359.251 43.0854 363.916 47.3866 370.332 47.3866C374.706 47.3866 378.642 45.4912 380.756 41.5545L386.297 44.3977C383.162 50.5214 377.403 53.8019 370.405 53.8019ZM358.74 32.2961H379.809C379.517 26.6098 375.362 22.746 369.457 22.746C363.406 22.746 359.469 26.9743 358.74 32.2961Z" fill="var(--textcolor)"/>
  <path d="M337.652 0.875488H344.87V52.9998H337.652V0.875488Z" fill="var(--textcolor)"/>
  <path d="M312.005 53.8746C301.215 53.8746 292.978 45.7826 292.978 35.2119V0.875488H300.195V21.7252C303.111 18.5176 307.485 16.4034 312.296 16.4034C323.159 16.4034 330.959 24.3497 330.959 35.2119C330.959 45.491 322.794 53.8746 312.005 53.8746ZM312.005 47.0948C318.639 47.0948 323.742 41.7001 323.742 35.139C323.742 28.6508 318.639 23.2561 312.005 23.2561C305.298 23.2561 300.195 28.6508 300.195 35.139C300.195 41.7001 305.298 47.0948 312.005 47.0948Z" fill="var(--textcolor)"/>
  <path d="M265.435 53.8745C255.083 53.8745 247.501 45.418 247.501 35.066C247.501 24.8599 255.666 16.4033 266.528 16.4033C277.318 16.4033 285.555 24.4225 285.555 35.066V52.9997H278.703V46.7302C276.005 51.1043 271.267 53.8745 265.435 53.8745ZM266.528 47.0218C273.235 47.0218 278.338 41.6271 278.338 35.1389C278.338 28.5778 273.235 23.1831 266.528 23.1831C259.894 23.1831 254.718 28.5778 254.718 35.1389C254.718 41.6271 259.894 47.0218 266.528 47.0218Z" fill="var(--textcolor)"/>
  <path d="M236.826 53.9473C227.932 53.9473 223.193 48.3339 223.193 40.1689V23.5475H216.122V17.278H223.193V8.01953H230.411V17.278H244.116V23.5475H230.411V39.9502C230.411 44.6159 233.181 47.3862 237.482 47.3862C239.815 47.3862 242.366 46.5113 244.116 45.272V51.906C242.294 53.1453 239.45 53.9473 236.826 53.9473Z" fill="var(--textcolor)"/>
  <path d="M195.139 23.3289C188.14 23.3289 184.641 29.0881 184.641 35.7221V52.9997H177.424V34.9931C177.424 24.5683 183.62 16.4033 195.139 16.4033C206.803 16.4033 213.145 24.5683 213.145 34.9202V52.9997H205.928V35.795C205.928 29.0881 202.283 23.3289 195.139 23.3289Z" fill="var(--textcolor)"/>
  <path d="M161.927 52.9999H154.71V31.7128C154.71 23.0375 159.667 16.5493 168.999 16.5493C171.259 16.5493 173.591 16.9867 175.414 17.8615V25.0059C173.664 23.9852 171.623 23.4749 169.655 23.4749C164.843 23.4749 161.927 26.7555 161.927 32.0044V52.9999Z" fill="var(--textcolor)"/>
  <path d="M130.048 46.8762C136.682 46.8762 140.327 41.117 140.327 34.483V17.2783H147.544V35.3578C147.544 45.7098 141.275 53.8747 130.048 53.8747C118.967 53.8747 112.697 45.6369 112.697 35.2849V17.2783H119.914V34.5559C119.914 41.117 123.487 46.8762 130.048 46.8762Z" fill="var(--textcolor)"/>
  <path d="M110.419 4.15625V11.009H95.4012V53H87.9652V11.009H73.0205V4.15625H110.419Z" fill="var(--textcolor)"/>
  <path fill-rule="evenodd" clip-rule="evenodd" d="M44.9237 57C51.5933 57 57 51.5933 57 44.9237C55.6943 34.0135 55.6943 22.9865 57 12.0763C57 5.40679 51.5933 6.09707e-05 44.9237 6.08911e-05C34.0135 1.30574 22.9865 1.30574 12.0763 6.04994e-05C5.40679 6.04199e-05 6.16504e-05 5.40679 6.15709e-05 12.0763C1.30574 22.9865 1.30574 34.0135 6.11792e-05 44.9237C6.10996e-05 51.5933 5.40679 57 12.0763 57C22.9865 55.6943 34.0135 55.6943 44.9237 57ZM3.76179 28.502C3.76179 14.8385 14.8382 3.76203 28.5017 3.76203C42.1652 3.76203 53.2417 14.8385 53.2417 28.502C53.2417 42.1655 42.1652 53.2419 28.5017 53.2419C14.8382 53.2419 3.76179 42.1655 3.76179 28.502ZM18.4805 28.5021C18.4805 23.1405 22.897 18.7941 28.3452 18.7941C33.7933 18.7941 38.2098 23.1405 38.2098 28.5021C38.2098 33.8638 33.7933 38.2102 28.3452 38.2102C22.897 38.2102 18.4805 33.8638 18.4805 28.5021Z" fill="var(--fillcolor)"/>
  </svg>