<svg xmlns="http://www.w3.org/2000/svg" version="1.1" xmlns:xlink="http://www.w3.org/1999/xlink" xmlns:svgjs="http://svgjs.dev/svgjs" width="1000" height="1000"><g clip-path="url(#SvgjsClipPath1118)"><rect width="1000" height="1000" fill="#ffffff"></rect><g transform="matrix(6.25,0,0,6.25,100,100)"><svg xmlns="http://www.w3.org/2000/svg" version="1.1" xmlns:xlink="http://www.w3.org/1999/xlink" xmlns:svgjs="http://svgjs.dev/svgjs" width="128" height="128"><svg width="128" height="128" viewBox="0 0 128 128" fill="none" xmlns="http://www.w3.org/2000/svg">
<path fill-rule="evenodd" clip-rule="evenodd" d="M100.881 128C115.859 128 128 115.859 128 100.881C125.068 76.3812 125.068 51.6189 128 27.1188C128 12.1416 115.859 0.000137184 100.881 0.000137006C76.3813 2.9322 51.6189 2.9322 27.1188 0.000136126C12.1416 0.000135948 0.000138711 12.1416 0.000138532 27.1187C2.93221 51.6189 2.93221 76.3812 0.000137652 100.881C0.000137474 115.859 12.1416 128 27.1188 128C51.6189 125.068 76.3813 125.068 100.881 128ZM8.44751 64.0051C8.44751 33.3222 33.321 8.44873 64.0039 8.44873C94.6869 8.44873 119.56 33.3222 119.56 64.0051C119.56 94.6881 94.6869 119.562 64.0039 119.562C33.321 119.562 8.44751 94.6881 8.44751 64.0051ZM41.4998 64.0041C41.4998 51.9639 51.4177 42.2035 63.652 42.2035C75.8864 42.2035 85.8043 51.9639 85.8043 64.0041C85.8043 76.0442 75.8864 85.8047 63.652 85.8047C51.4177 85.8047 41.4998 76.0442 41.4998 64.0041Z" fill="#1D1D1D"></path>
</svg></svg></g></g><defs><clipPath id="SvgjsClipPath1118"><rect width="1000" height="1000" x="0" y="0" rx="200" ry="200"></rect></clipPath></defs></svg>